<svg id="Layer_1" data-name="Layer 1" xmlns="http://www.w3.org/2000/svg" viewBox="0 0 497.33 380.46"><defs><style>.cls-1{fill:#d7df23;}.cls-2{fill:#8fc33f;}.cls-3{fill:#68b745;}.cls-4{fill:#77777a;}.cls-5{fill:#56aa5a;}.cls-6{fill:#6b6c6f;}</style></defs><title>HausLogo_1fb41d4e-be9d-482d-8c6b-f07767306013</title><path class="cls-1" d="M235.63,0c15.66,46.88.53,84.14-50.5,101.19C169,52.93,184.6,17.05,235.63,0Z"/><path class="cls-2" d="M189.25,217.1C100,217.1,44.88,169.85,44.88,72.73,136.75,72.73,189.25,120,189.25,217.1Z"/><path class="cls-2" d="M189.25,217.09c-77-45.15-100.61-113.8-51.47-197.57C217,66,238.39,133.32,189.25,217.09Z"/><path class="cls-3" d="M180.58,52.29c-3.14,14.33-1.57,30.76,4.51,49a114.57,114.57,0,0,0,22-9.87C201.26,77.42,192.37,64.38,180.58,52.29Z"/><path class="cls-2" d="M288.19,146.36c2.59,36.47-19.5,60.68-68.2,64.13C217.31,173,239.48,149.82,288.19,146.36Z"/><path class="cls-2" d="M223.77,359.59h11.32c4.33,0,6.27,1.91,6.27,5.1a4.18,4.18,0,0,1-3,4.3v0.06c2.34,0.54,3.85,2.08,3.85,5s-2,5.87-6.44,5.87h-12V359.59ZM235,368c2.22,0,3.31-1.23,3.31-2.85,0-1.85-1-2.94-3.48-2.94h-8.07V368H235ZM235,377.32c3.36,0,4.25-1.71,4.25-3.45s-0.91-3.25-4-3.25h-8.44v6.7H235Z"/><path class="cls-2" d="M249.05,359.59h3v20.35h-3V359.59Z"/><path class="cls-2" d="M269.77,359.08c8.18,0,11.32,5.47,11.32,10.69s-3.14,10.69-11.32,10.69-11.32-5.47-11.32-10.69S261.59,359.08,269.77,359.08Zm0,2.62c-4.65,0-8.29,2.68-8.29,8.07s3.65,8.07,8.29,8.07,8.29-2.68,8.29-8.07S274.42,361.7,269.77,361.7Z"/><path class="cls-2" d="M303.94,366.92c-0.46-2.82-2.68-5.22-7-5.22-4.82,0-7.87,2.76-7.87,8.32,0,3.85,2.08,7.81,7.7,7.81,3.56,0,6.27-1.71,7.12-5.67h3c-0.48,4.5-4.36,8.29-10.18,8.29-5.13,0-10.69-2.82-10.69-10.75,0-5.93,3.71-10.63,10.66-10.63,4.08,0,9.69,1.74,10.2,7.84h-3Z"/><path class="cls-2" d="M313.28,359.59h16.36v2.62H316.31v5.9h12.94v2.62H316.31v6.58h13.62v2.62H313.28V359.59Z"/><path class="cls-2" d="M336.14,359.59h3v13c0,3.68,2.45,5.22,6.19,5.22s6.18-1.54,6.18-5.22v-13h3v12.66c0,5.44-3,8.21-9.21,8.21s-9.21-2.76-9.21-8.21V359.59Z"/><path class="cls-2" d="M367.26,362.21h-7.7v-2.62H378v2.62h-7.7v17.73h-3V362.21Z"/><path class="cls-2" d="M383.3,359.59h3v20.35h-3V359.59Z"/><path class="cls-2" d="M410.55,366.92c-0.46-2.82-2.68-5.22-7-5.22-4.82,0-7.87,2.76-7.87,8.32,0,3.85,2.08,7.81,7.7,7.81,3.56,0,6.27-1.71,7.12-5.67h3c-0.48,4.5-4.36,8.29-10.18,8.29-5.13,0-10.69-2.82-10.69-10.75,0-5.93,3.71-10.63,10.66-10.63,4.08,0,9.69,1.74,10.2,7.84h-3Z"/><path class="cls-2" d="M433.41,374h-10l-2.59,5.93h-3.25l9.21-20.35h3.45l9.21,20.35H436Zm-5-11.63-3.82,9h7.72Z"/><path class="cls-2" d="M444.49,359.59h3v17.73h12.37v2.62H444.49V359.59Z"/><path class="cls-2" d="M466.46,373.25c0.06,3.65,3.48,4.59,6.56,4.59s5.5-1.23,5.5-3.45c0-1.85-1.45-2.62-3.79-3l-4.62-.77c-2.42-.4-6-1.37-6-5.33,0-3.71,2.94-6.18,8.15-6.18,4.08,0,8.38,1.48,8.67,6.38h-3c-0.26-1.6-1.17-3.76-6-3.76-2.22,0-4.73.94-4.73,3.33,0,1.25.83,2.25,3.33,2.68l5,0.85c1.6,0.29,6.13,1.05,6.13,5.22,0,5.19-4.65,6.67-8.75,6.67-4.59,0-9.35-1.6-9.35-7.21h3Z"/><polygon class="cls-4" points="117.86 342.39 117.86 236.25 91.94 236.25 91.94 277.59 25.93 277.59 25.93 236.25 0 236.25 0 342.39 25.93 342.39 25.93 294.57 91.94 294.57 91.94 342.39 117.86 342.39"/><path class="cls-4" d="M360.24,236.25H334.32v61.24c0,10.06,0,31-29.92,31s-29.92-20.94-29.92-31V236.25H248.55V304.9c0,10,0,40.58,55.85,40.58s55.85-30.54,55.85-40.58V236.25Z"/><path class="cls-4" d="M447.43,281.57l-37.48-6c-11.84-1.9-14.33-7.74-14.33-12.31,0-8.81,9.2-15,22.36-15,7.9,0,26,0,29.3,15.89h29.29c-2.45-20.86-20.84-31-56.12-31s-52.61,10.65-52.61,32.55c0,19.65,14.37,25.88,35.94,29.19l27.3,4.16c11.14,1.74,20.37,4,20.37,14.63,0,5.87-3.33,15.73-25.6,15.73-18.87,0-29-6-30.26-17.74H365.89c0.69,13.44,7.18,22.6,19.78,28,12.17,5.17,27.86,5.84,40.17,5.84,36.65,0,55.23-11.78,55.23-35C481.07,294.24,470.7,285.33,447.43,281.57Z"/><path class="cls-4" d="M189.09,279.86l38.4,62.53h29.89L189.07,231.92,120.76,342.39h27.56c17-25.38,19.91-29.63,20.53-30.47h0c0.75-1,11.49-18.09,18.53-29.32Z"/><path class="cls-5" d="M113.21,84.1c-8,54.57,19.73,99.92,75.79,132.81C189,147.44,162.13,103.49,113.21,84.1Z"/><path class="cls-6" d="M490.1,241.81a5.46,5.46,0,0,1,5.42,5.68,5.4,5.4,0,0,1-5.37,5.59A5.64,5.64,0,0,1,490.1,241.81Zm0-1.42a7.1,7.1,0,1,0,7.22,7.05A7.13,7.13,0,0,0,490.1,240.39ZM489,245.12a3.91,3.91,0,0,1,.9-0.09c1,0,1.51.43,1.51,1.08s-0.73,1-1.63,1H489v-2Zm0,3.18h0.77a1.24,1.24,0,0,1,1.46,1.12,6.06,6.06,0,0,0,.56,1.72h1.76a5.39,5.39,0,0,1-.52-1.76,2.08,2.08,0,0,0-1.29-1.72v-0.09a1.81,1.81,0,0,0,1.46-1.63,2,2,0,0,0-.69-1.55,4.39,4.39,0,0,0-2.45-.52,14.24,14.24,0,0,0-2.71.22v7.05H489V248.3Z"/></svg>
